<?xml version="1.0" encoding="UTF-8"?>
<svg version="1.1" xmlns="http://www.w3.org/2000/svg" width="558" height="447">
<path d="M0 0 C1.1022995 -0.01606293 2.204599 -0.03212585 3.34030151 -0.04867554 C8.41875605 -0.09325669 13.49707857 -0.13424926 18.57568359 -0.15722656 C21.24525818 -0.17048029 23.91299919 -0.2009064 26.58251953 -0.23925781 C30.44212641 -0.29440876 34.30069502 -0.31596706 38.16064453 -0.33056641 C39.33924042 -0.35323578 40.5178363 -0.37590515 41.73214722 -0.39926147 C50.04692182 -0.37836099 56.31294185 1.47946774 63.73095703 5.19287109 C64.72095703 5.68787109 64.72095703 5.68787109 65.73095703 6.19287109 C65.73095703 6.85287109 65.73095703 7.51287109 65.73095703 8.19287109 C66.39095703 8.19287109 67.05095703 8.19287109 67.73095703 8.19287109 C71.72351965 13.0897215 73.93422147 18.79441819 75.79345703 24.75537109 C76.04530762 25.53549561 76.2971582 26.31562012 76.55664062 27.11938477 C78.50859182 33.25399942 80.19469677 39.43957198 81.80126953 45.67333984 C83.27021997 51.23436649 85.00376456 56.70768563 86.73095703 62.19287109 C88.7450852 68.65224307 90.7204792 75.11419503 92.54345703 81.63037109 C94.54301772 88.69548551 96.77696519 95.67771403 99.02099609 102.66845703 C101.27470808 109.70800681 103.42605514 116.77304816 105.52905273 123.85888672 C107.21836662 129.53381129 108.98767188 135.17904598 110.79345703 140.81787109 C112.70123977 146.78557189 114.47335197 152.76931506 116.10595703 158.81787109 C118.41719793 167.36984635 121.12230441 175.78120939 123.85058594 184.20800781 C125.98771248 190.82302027 128.00715782 197.44488181 129.87158203 204.14208984 C131.38756298 209.52382221 133.0685319 214.8549279 134.73095703 220.19287109 C136.78804959 226.79806672 138.80248455 233.40582476 140.66845703 240.06787109 C142.03716108 244.91180028 143.54326638 249.679031 145.16845703 254.44287109 C147.09031064 260.1079042 148.78002868 265.79760379 150.35595703 271.56787109 C150.77515375 273.08612073 151.1944218 274.60435067 151.61376953 276.12255859 C152.26937092 278.4995227 152.91049069 280.87788786 153.53564453 283.26318359 C154.6516096 287.57493083 154.6516096 287.57493083 157.84594822 290.394907 C161.39437362 291.37636537 164.74032742 291.47624582 168.39109802 291.46029663 C169.15476104 291.46482774 169.91842406 291.46935886 170.70522839 291.47402728 C173.26000897 291.4866713 175.81457638 291.48505093 178.36938477 291.48339844 C180.20273106 291.48938361 182.03607483 291.49618913 183.86941528 291.50375366 C188.84664954 291.52142009 193.82381503 291.52610926 198.8010776 291.52738523 C202.95623916 291.52928481 207.11138472 291.53664287 211.26654011 291.54372942 C221.06889632 291.56001275 230.8712158 291.56489836 240.67358398 291.56347656 C250.78642482 291.56227452 260.89905246 291.58338909 271.01183933 291.61496389 C279.69477481 291.64110855 288.37764057 291.65184465 297.06061512 291.65056574 C302.24640814 291.65005566 307.43201161 291.65576473 312.61776543 291.67692184 C317.49419892 291.69627418 322.3702614 291.69644928 327.24670792 291.68188858 C329.03574858 291.67979578 330.82481229 291.68452937 332.6138134 291.6966095 C335.05758984 291.71204156 337.50008367 291.70276834 339.9438324 291.68734741 C341.00391192 291.7027781 341.00391192 291.7027781 342.0854072 291.71852052 C347.05994756 291.64922366 349.93125692 290.36355426 353.73095703 287.19287109 C355.28357886 283.91953994 355.28357886 283.91953994 356.10986328 280.10302734 C356.28778412 279.41017136 356.46570496 278.71731537 356.64901733 278.00346375 C357.21953269 275.75903714 357.75668624 273.5080818 358.29345703 271.25537109 C358.67956776 269.71027572 359.06767923 268.16567897 359.45776367 266.62158203 C360.57931115 262.15250958 361.65932552 257.67413048 362.73095703 253.19287109 C363.15586426 251.43209229 363.15586426 251.43209229 363.58935547 249.63574219 C364.93417012 244.05435845 364.93417012 244.05435845 366.23510742 238.46264648 C367.19377204 234.27503123 368.36613255 230.27056392 369.73095703 226.19287109 C370.19575458 224.09456539 370.63169101 221.98972463 371.04345703 219.88037109 C372.17936261 214.40265381 373.59398274 209.10273941 375.23095703 203.75537109 C377.2223614 197.23145121 378.66252793 190.73965108 379.91455078 184.02880859 C380.99061404 178.97285585 382.45276198 174.07211599 383.9609375 169.13110352 C385.08387713 165.44199454 386.0996509 161.78690173 386.85595703 158.00537109 C387.99011777 153.06367073 389.93848591 149.38157777 392.73095703 145.19287109 C393.39095703 145.19287109 394.05095703 145.19287109 394.73095703 145.19287109 C394.73095703 144.20287109 394.73095703 143.21287109 394.73095703 142.19287109 C403.24367403 134.49653956 415.66184071 135.72695037 426.35546875 135.80175781 C429.12044696 135.81795598 431.88398982 135.80179011 434.64892578 135.78271484 C436.41325191 135.78469528 438.17757715 135.7885348 439.94189453 135.79443359 C440.76483002 135.7883609 441.5877655 135.78228821 442.43563843 135.77603149 C445.76557891 135.81702008 448.26135385 135.93924303 451.22167969 137.53808594 C453.4781713 140.01212349 453.66478425 141.8842321 453.73095703 145.19287109 C452.59315831 147.52018666 451.56254989 149.36127823 449.73095703 151.19287109 C446.99123285 151.31609478 444.27284802 151.37901517 441.53173828 151.40380859 C439.83055705 151.43189308 438.12938531 151.46055764 436.42822266 151.48974609 C433.74015731 151.5309087 431.0522662 151.56778441 428.36401367 151.59423828 C425.77371236 151.62195482 423.18422365 151.66784437 420.59423828 151.71630859 C419.39859001 151.7211879 419.39859001 151.7211879 418.17878723 151.72616577 C413.34599982 151.83191323 409.8729964 152.43628208 405.73095703 155.19287109 C404.38346532 158.2651522 403.55635475 160.96250742 402.73095703 164.19287109 C402.36360842 165.47910286 401.99218502 166.76417475 401.61767578 168.04833984 C398.48890336 178.87690275 395.87103751 189.81101824 393.29980469 200.78271484 C389.22847629 218.03256631 384.63915166 235.16909384 380.12158203 252.30615234 C379.74235596 253.74812988 379.74235596 253.74812988 379.35546875 255.21923828 C378.8587621 257.10704714 378.36040933 258.9944237 377.86035156 260.88134766 C376.63451746 265.55048997 375.48442097 270.22178656 374.45751953 274.93896484 C369.47215628 297.76054244 369.47215628 297.76054244 358.36767578 305.03662109 C349.02243856 309.13468067 338.98952754 308.48353651 329.0090332 308.4675293 C327.21438892 308.47188158 325.4197465 308.47706645 323.62510681 308.48301697 C318.7695959 308.49636363 313.91416305 308.4969904 309.05863738 308.49445367 C304.99579889 308.49338086 300.93297599 308.49827531 296.87014085 308.50305909 C287.27938207 308.51413962 277.68866247 308.51460008 268.09790039 308.50854492 C258.22597667 308.50250776 248.35419557 308.51481298 238.48229617 308.53611499 C229.98687148 308.5537682 221.49149204 308.55972643 212.9960497 308.55647725 C207.93088704 308.55466994 202.8658261 308.55724507 197.80068016 308.57119179 C193.03420345 308.58382591 188.26794794 308.5817735 183.50147438 308.5687809 C181.76010689 308.56642757 180.01872357 308.5691048 178.27737427 308.57740402 C155.95572684 308.67605097 155.95572684 308.67605097 147.73095703 303.19287109 C147.73095703 302.53287109 147.73095703 301.87287109 147.73095703 301.19287109 C146.74095703 300.86287109 145.75095703 300.53287109 144.73095703 300.19287109 C144.73095703 299.53287109 144.73095703 298.87287109 144.73095703 298.19287109 C143.74095703 297.86287109 142.75095703 297.53287109 141.73095703 297.19287109 C138.93233433 291.63294065 137.11857747 285.65605811 135.16845703 279.75537109 C134.86488281 278.85238281 134.56130859 277.94939453 134.24853516 277.01904297 C132.72305314 272.42930297 131.36531783 267.86401548 130.24291992 263.16088867 C129.08008701 258.69088577 127.46122954 254.35038554 125.94189453 249.99169922 C124.65928544 246.23780039 123.54298413 242.546852 122.73095703 238.66162109 C121.78349741 234.15580459 120.33547739 229.93954088 118.73095703 225.63037109 C116.96704635 220.86693903 115.42128951 216.17439919 114.24511719 211.23168945 C113.30919943 207.52046003 112.09560343 203.89575612 110.91845703 200.25537109 C108.6520994 193.17274223 106.49419339 186.06738439 104.421875 178.92578125 C103.16412281 174.60952127 101.80474273 170.3461803 100.34423828 166.09521484 C99.50805149 163.50143797 98.89298349 160.86909722 98.25830078 158.22021484 C97.08610541 153.71377487 95.47957884 149.33126112 93.94189453 144.93896484 C92.70059116 141.33416969 91.60538998 137.80803178 90.85595703 134.06787109 C89.98354026 129.87440558 88.67477945 125.8658781 87.29345703 121.81787109 C85.54633561 116.69612956 83.9712629 111.57350223 82.59033203 106.34130859 C76.7496374 84.94312735 69.89650198 63.75729707 63.10107422 42.64697266 C61.86589184 38.804024 60.64735338 34.96365968 59.54736328 31.07958984 C59.21607422 29.92072266 58.88478516 28.76185547 58.54345703 27.56787109 C58.28177734 26.60623047 58.02009766 25.64458984 57.75048828 24.65380859 C56.54357325 21.74056542 55.14422312 20.20165379 52.73095703 18.19287109 C49.66459027 17.17074884 47.5413938 17.05659924 44.32910156 17.03515625 C43.2243045 17.0248941 42.11950745 17.01463196 40.98123169 17.00405884 C39.78746918 16.99675751 38.59370667 16.98945618 37.36376953 16.98193359 C34.84423174 16.95386864 32.32470058 16.9252042 29.80517578 16.89599609 C25.82649901 16.85470005 21.84794632 16.81781811 17.86914062 16.79150391 C14.03375634 16.76392832 10.19893692 16.7180588 6.36376953 16.66943359 C5.17405548 16.66618073 3.98434143 16.66292786 2.75857544 16.65957642 C1.64747406 16.64300995 0.53637268 16.62644348 -0.60839844 16.609375 C-1.58308075 16.60128815 -2.55776306 16.59320129 -3.5619812 16.58486938 C-6.81047393 16.11446874 -8.69526466 15.22236041 -11.26904297 13.19287109 C-11.72256074 10.01824672 -11.94328611 8.20570532 -11.26904297 5.19287109 C-7.90953273 0.82550779 -5.33183594 0.07054754 0 0 Z " fill="#EBEBEB" transform="translate(54.26904296875,28.80712890625)"/>
<path d="M0 0 C2.65615896 1.69828487 4.95250203 3.59776834 7 6 C7 6.66 7 7.32 7 8 C7.66 8 8.32 8 9 8 C9.556875 8.70125 10.11375 9.4025 10.6875 10.125 C12.54731713 12.43720508 14.1219522 14.02481505 16.375 15.875 C19.50208661 18.46754189 22.02181077 21.28833157 24.6015625 24.4140625 C26.07772429 26.18007787 26.07772429 26.18007787 28.5 28 C31.23609833 30.18887867 33.28925553 32.58678794 35.52734375 35.265625 C38.3163649 38.55030773 41.27074835 41.44034176 44.6875 44.0625 C47.06969858 46.05839611 48.15209292 47.03232522 49 50 C48.78605281 56.09749492 48.78605281 56.09749492 46.3125 58.9375 C43.07538005 60.42482538 41.54855304 60.68241405 38 60 C26.46867376 49.91008954 15.83461531 38.83461531 5 28 C4.67 64.63 4.34 101.26 4 139 C-0.95 139 -5.9 139 -11 139 C-11.33 102.37 -11.66 65.74 -12 28 C-14.475 30.475 -14.475 30.475 -17 33 C-18.2065625 33.928125 -18.2065625 33.928125 -19.4375 34.875 C-22.15866136 37.13157284 -24.26868968 39.56217204 -26.52734375 42.265625 C-29.28105048 45.50871728 -32.21025948 48.38361716 -35.5625 51 C-38.12561732 52.96023318 -38.12561732 52.96023318 -40.1875 55.75 C-40.785625 56.4925 -41.38375 57.235 -42 58 C-42.66 58 -43.32 58 -44 58 C-44 58.66 -44 59.32 -44 60 C-51.22823529 60.60235294 -51.22823529 60.60235294 -54.5625 58 C-56.55870178 53.83401367 -55.91149459 51.48151508 -55 47 C-53.515 46.505 -53.515 46.505 -52 46 C-51.67 45.01 -51.34 44.02 -51 43 C-50.34 43 -49.68 43 -49 43 C-49 42.34 -49 41.68 -49 41 C-48.34 41 -47.68 41 -47 41 C-46.67 40.01 -46.34 39.02 -46 38 C-45.34 38 -44.68 38 -44 38 C-43.67 37.01 -43.34 36.02 -43 35 C-42.34 35 -41.68 35 -41 35 C-41 34.34 -41 33.68 -41 33 C-40.34 33 -39.68 33 -39 33 C-38.67 32.01 -38.34 31.02 -38 30 C-37.34 30 -36.68 30 -36 30 C-35.67 29.01 -35.34 28.02 -35 27 C-34.34 27 -33.68 27 -33 27 C-32.731875 26.360625 -32.46375 25.72125 -32.1875 25.0625 C-31 23 -31 23 -28 22 C-27.67 21.01 -27.34 20.02 -27 19 C-26.34 19 -25.68 19 -25 19 C-24.731875 18.360625 -24.46375 17.72125 -24.1875 17.0625 C-23 15 -23 15 -20 14 C-19.67 13.01 -19.34 12.02 -19 11 C-18.34 11 -17.68 11 -17 11 C-16.731875 10.360625 -16.46375 9.72125 -16.1875 9.0625 C-15 7 -15 7 -12 6 C-12 5.34 -12 4.68 -12 4 C-8.16848224 0.05237564 -5.4377759 -0.93754757 0 0 Z " fill="#EEEDED" transform="translate(315,109)"/>
<path d="M0 0 C0 0.66 0 1.32 0 2 C0.99 2 1.98 2 3 2 C4.7890625 4.30078125 4.7890625 4.30078125 6.625 7.3125 C7.23601562 8.29863281 7.84703125 9.28476562 8.4765625 10.30078125 C11.8488546 16.27579109 11.75004975 22.30102623 11 29 C8.35599426 37.46687336 3.78662799 43.66544375 -4 48 C-10.97685023 50.82896941 -19.24767977 51.43382601 -26.51171875 49.2421875 C-28.4754636 48.29210904 -30.21410747 47.24881483 -32 46 C-32.86625 45.46375 -33.7325 44.9275 -34.625 44.375 C-40.52721866 38.47278134 -44.12177779 31.53422076 -44.1875 23.1875 C-44.05251615 14.79395872 -41.43781822 8.37707773 -36 2 C-33.72365347 0.28309457 -31.6063856 -0.77057283 -29 -2 C-28.01 -2.66 -27.02 -3.32 -26 -4 C-16.8710573 -6.76634627 -7.84610611 -5.23073741 0 0 Z M-28 13 C-31.01307266 17.33129194 -31.55924465 20.78038327 -31 26 C-29.25583626 30.68170268 -27.12964161 33.21249191 -23 36 C-18.92899916 37.35700028 -15.19048298 37.86631806 -11.09375 36.24609375 C-7.60688133 34.36229818 -4.78318588 32.56637175 -3 29 C-1.88486268 23.68165279 -1.54964469 20.01209041 -4 15 C-7.78557741 10.61669984 -10.52122907 8.3336807 -16.25 7.5625 C-21.13876853 8.13285633 -24.28074557 9.81685431 -28 13 Z " fill="#E6E6E5" transform="translate(279,362)"/>
<path d="M0 0 C0 0.66 0 1.32 0 2 C0.763125 2.2475 1.52625 2.495 2.3125 2.75 C5.27791695 4.1292637 6.38360273 5.19257315 8 8 C8 8.99 8 9.98 8 11 C8.66 11 9.32 11 10 11 C13.18042282 19.74616275 13.3449081 29.12278216 9.4609375 37.67578125 C5.50895551 43.96302533 -0.81738736 49.11603603 -8 51 C-17.0051669 51.96877101 -24.5971551 51.54572983 -32 46 C-37.71278789 40.68152912 -41.57159429 36.065735 -42.40625 28.14453125 C-42.73158032 19.02268893 -42.30636035 12.16827748 -36 5 C-25.4846287 -5.83162307 -13.10061585 -6.24369777 0 0 Z M-26.8125 14.8125 C-29.95514836 19.39178761 -30.32724015 22.13473116 -29.375 27.5625 C-27.562766 32.09308499 -25.08106355 34.54325551 -21.125 37.3125 C-15.93450316 38.99177839 -11.96054852 38.26152426 -7.1875 35.875 C-4.25160082 34.09248979 -3.13626449 33.24527608 -1.4375 30.1875 C-0.27719703 21.78378853 -0.27719703 21.78378853 -3 14 C-5.25619706 12.39076065 -7.50180806 11.24909597 -10 10 C-10.66 9.67 -11.32 9.34 -12 9 C-18.47169536 8.41166406 -22.26117121 10.26117121 -26.8125 14.8125 Z " fill="#E7E6E6" transform="translate(380,361)"/>
<path d="M0 0 C0.66 0.33 1.32 0.66 2 1 C-1.3 4.3 -4.6 7.6 -8 11 C-8 7.0234755 -6.61988497 5.9109833 -4 3 C-1.75 1.1875 -1.75 1.1875 0 0 Z " fill="#939393" transform="translate(350,361)"/>
<path d="M0 0 C0 0.33 0 0.66 0 1 C-0.928125 1.268125 -1.85625 1.53625 -2.8125 1.8125 C-5.86419067 2.94940437 -6.8499752 3.74759307 -9 6 C-9.99 6 -10.98 6 -12 6 C-12 4 -12 4 -9.9375 1.875 C-6.36313462 -0.40650982 -4.16216275 -0.32644414 0 0 Z " fill="#A4A2A3" transform="translate(315,109)"/>
<path d="M0 0 C2.2227858 3.96926035 4.47813386 8.63843451 3.55078125 13.21875 C3.36902344 13.8065625 3.18726563 14.394375 3 15 C2.29634398 13.4447088 1.61270622 11.88035173 0.9375 10.3125 C0.55464844 9.44238281 0.17179688 8.57226562 -0.22265625 7.67578125 C-1.0935848 4.67786136 -0.85006226 2.96719847 0 0 Z " fill="#8F8F8E" transform="translate(130,57)"/>
<path d="M0 0 C2.29633824 3.44450737 2.54016485 5.93812283 3 10 C0.9375 7.8125 0.9375 7.8125 -1 5 C-0.75 2.1875 -0.75 2.1875 0 0 Z " fill="#8F8F8C" transform="translate(178,216)"/>
</svg>
